<svg width="16" height="31" viewBox="0 0 16 31" fill="none" xmlns="http://www.w3.org/2000/svg">
<path d="M7.99677 30.8294C6.29277 30.8294 4.87677 30.4694 3.74877 29.7494C2.64477 29.0294 1.80477 28.0334 1.22877 26.7614C0.676766 25.4894 0.400766 24.0254 0.400766 22.3694V9.44543C0.400766 7.74143 0.664766 6.25343 1.19277 4.98143C1.74477 3.68543 2.57277 2.67743 3.67677 1.95743C4.80477 1.23743 6.24477 0.877429 7.99677 0.877429C9.74877 0.877429 11.1768 1.23743 12.2808 1.95743C13.4088 2.67743 14.2368 3.68543 14.7648 4.98143C15.3168 6.25343 15.5928 7.74143 15.5928 9.44543V22.3694C15.5928 24.0254 15.3048 25.4894 14.7288 26.7614C14.1768 28.0334 13.3368 29.0294 12.2088 29.7494C11.1048 30.4694 9.70077 30.8294 7.99677 30.8294ZM7.99677 26.5454C8.74077 26.5454 9.29277 26.3174 9.65277 25.8614C10.0128 25.4054 10.2528 24.8534 10.3728 24.2054C10.4928 23.5574 10.5528 22.9214 10.5528 22.2974V9.51743C10.5528 8.84543 10.4928 8.18543 10.3728 7.53743C10.2768 6.86543 10.0488 6.30143 9.68877 5.84543C9.32877 5.38943 8.76477 5.16143 7.99677 5.16143C7.22877 5.16143 6.66477 5.38943 6.30477 5.84543C5.94477 6.30143 5.70477 6.86543 5.58477 7.53743C5.48877 8.18543 5.44077 8.84543 5.44077 9.51743V22.2974C5.44077 22.9214 5.50077 23.5574 5.62077 24.2054C5.76477 24.8534 6.01677 25.4054 6.37677 25.8614C6.73677 26.3174 7.27677 26.5454 7.99677 26.5454Z" fill="#728AB7"/>
</svg>
