<svg width="16" height="31" viewBox="0 0 16 31" fill="none" xmlns="http://www.w3.org/2000/svg">
<path d="M0.30736 26.8694L7.50736 15.7454C7.62736 15.5534 7.73536 15.3854 7.83136 15.2414C7.92736 15.0974 8.01136 14.9654 8.08336 14.8454C8.94736 13.5014 9.58336 12.3854 9.99136 11.4974C10.3994 10.6094 10.6034 9.60143 10.6034 8.47343C10.6034 6.21743 9.81136 5.08943 8.22736 5.08943C7.14736 5.08943 6.39136 5.50943 5.95936 6.34943C5.52736 7.18943 5.31136 8.31743 5.31136 9.73343V10.9574H0.41536V9.66143C0.41536 6.92543 1.02736 4.78943 2.25136 3.25343C3.49936 1.69343 5.44336 0.913428 8.08336 0.913428C10.5314 0.913428 12.3914 1.58543 13.6634 2.92943C14.9354 4.24943 15.5714 6.10943 15.5714 8.50943C15.5714 9.99743 15.3074 11.3174 14.7794 12.4694C14.2754 13.6214 13.4834 15.0374 12.4034 16.7174L11.9714 17.3654L5.95936 26.4014H14.8154V30.3974H0.30736V26.8694Z" fill="#728AB7"/>
</svg>
