<svg width="16" height="31" viewBox="0 0 16 31" fill="none" xmlns="http://www.w3.org/2000/svg">
<path d="M7.59241 30.8294C2.52841 30.8294 -0.00359274 28.0454 -0.00359274 22.4774V21.4694H4.92841V22.3334C4.97641 23.8214 5.18041 24.9134 5.54041 25.6094C5.92441 26.3054 6.62041 26.6534 7.62841 26.6534C8.66041 26.6534 9.35641 26.2934 9.71641 25.5734C10.0764 24.8294 10.2564 23.6654 10.2564 22.0814C10.2564 20.4974 10.0044 19.2974 9.50041 18.4814C8.99641 17.6654 8.10841 17.2214 6.83641 17.1494H6.00841V13.1534H6.76441C8.06041 13.1294 8.96041 12.7814 9.46441 12.1094C9.99241 11.4374 10.2564 10.3334 10.2564 8.79743C10.2564 7.47743 10.0524 6.49343 9.64441 5.84543C9.26041 5.19743 8.56441 4.87343 7.55641 4.87343C6.57241 4.87343 5.90041 5.22143 5.54041 5.91743C5.18041 6.61343 4.97641 7.64543 4.92841 9.01343V10.0574H-0.00359274V8.68943C-0.00359274 6.19343 0.644407 4.27343 1.94041 2.92943C3.26041 1.56143 5.13241 0.877429 7.55641 0.877429C10.0284 0.877429 11.9124 1.54943 13.2084 2.89343C14.5284 4.21343 15.1884 6.10943 15.1884 8.58143C15.1884 10.2854 14.8284 11.7014 14.1084 12.8294C13.4124 13.9334 12.4884 14.6534 11.3364 14.9894C12.5364 15.3974 13.4724 16.1774 14.1444 17.3294C14.8404 18.4574 15.1884 20.0054 15.1884 21.9734C15.1884 24.7574 14.5764 26.9294 13.3524 28.4894C12.1524 30.0494 10.2324 30.8294 7.59241 30.8294Z" fill="#728AB7"/>
</svg>
