<svg width="16" height="30" viewBox="0 0 16 30" fill="none" xmlns="http://www.w3.org/2000/svg">
<path d="M7.84809 29.8294C5.90409 29.8294 4.39209 29.4694 3.31209 28.7494C2.25609 28.0294 1.52409 27.0094 1.11609 25.6894C0.708094 24.3694 0.504094 22.8214 0.504094 21.0454H5.36409C5.36409 22.0294 5.42409 22.9054 5.54409 23.6734C5.68809 24.4174 5.95209 25.0054 6.33609 25.4374C6.74409 25.8454 7.33209 26.0374 8.10009 26.0134C8.94009 26.0134 9.52809 25.7494 9.86409 25.2214C10.2241 24.6694 10.4521 23.9134 10.5481 22.9534C10.6441 21.9694 10.6921 20.8294 10.6921 19.5334C10.6921 18.4054 10.6201 17.4214 10.4761 16.5814C10.3561 15.7414 10.1041 15.0934 9.7201 14.6374C9.3361 14.1574 8.7361 13.9174 7.92009 13.9174C7.22409 13.9174 6.64809 14.1574 6.19209 14.6374C5.73609 15.0934 5.40009 15.7054 5.18409 16.4734H0.900094L1.18809 0.237428H14.2921V4.70143H5.36409L5.07609 11.7214C5.43609 11.2894 5.95209 10.9414 6.62409 10.6774C7.32009 10.4134 8.08809 10.2574 8.92809 10.2094C10.4641 10.1374 11.7121 10.4614 12.6721 11.1814C13.6321 11.9014 14.3401 12.9454 14.7961 14.3134C15.2521 15.6814 15.4801 17.3134 15.4801 19.2094C15.4801 20.7454 15.3721 22.1614 15.1561 23.4574C14.9641 24.7534 14.5921 25.8814 14.0401 26.8414C13.4881 27.7774 12.7081 28.5094 11.7001 29.0374C10.7161 29.5654 9.4321 29.8294 7.84809 29.8294Z" fill="#728AB7"/>
</svg>
