<svg width="16" height="31" viewBox="0 0 16 31" fill="none" xmlns="http://www.w3.org/2000/svg">
<path d="M8.24738 30.7934C6.44738 30.7934 4.98338 30.3734 3.85538 29.5334C2.72738 28.6934 1.89938 27.5534 1.37138 26.1134C0.867376 24.6494 0.615376 23.0174 0.615376 21.2174V10.9934C0.615376 9.09743 0.831376 7.39343 1.26338 5.88143C1.69538 4.34543 2.46338 3.13343 3.56738 2.24543C4.67138 1.35743 6.21938 0.913428 8.21138 0.913428C9.91538 0.913428 11.2954 1.20143 12.3514 1.77743C13.4314 2.32943 14.2234 3.14543 14.7274 4.22543C15.2314 5.30543 15.4834 6.63743 15.4834 8.22143C15.4834 8.29343 15.4834 8.37743 15.4834 8.47343C15.5074 8.54543 15.5194 8.61743 15.5194 8.68943H10.7314C10.7314 7.39343 10.5754 6.42143 10.2634 5.77343C9.95138 5.12543 9.27938 4.80143 8.24738 4.80143C7.62338 4.80143 7.11938 4.99343 6.73538 5.37743C6.35138 5.76143 6.06338 6.39743 5.87138 7.28543C5.70338 8.14943 5.61938 9.31343 5.61938 10.7774V14.2694C5.95538 13.7174 6.45938 13.2854 7.13138 12.9734C7.82738 12.6374 8.63138 12.4694 9.54338 12.4694C11.1274 12.4454 12.3754 12.7934 13.2874 13.5134C14.1994 14.2334 14.8474 15.2294 15.2314 16.5014C15.6394 17.7734 15.8434 19.2254 15.8434 20.8574C15.8434 22.7534 15.6034 24.4574 15.1234 25.9694C14.6434 27.4574 13.8514 28.6334 12.7474 29.4974C11.6434 30.3614 10.1434 30.7934 8.24738 30.7934ZM8.28338 26.9414C8.97938 26.9414 9.50738 26.7254 9.86738 26.2934C10.2274 25.8614 10.4794 25.2614 10.6234 24.4934C10.7674 23.7254 10.8394 22.8254 10.8394 21.7934C10.8394 20.7374 10.7914 19.8014 10.6954 18.9854C10.6234 18.1454 10.4074 17.4854 10.0474 17.0054C9.68738 16.5014 9.08738 16.2494 8.24738 16.2494C7.83938 16.2494 7.45538 16.3334 7.09538 16.5014C6.75938 16.6454 6.45938 16.8374 6.19538 17.0774C5.95538 17.3174 5.76338 17.5574 5.61938 17.7974V22.3694C5.61938 23.1854 5.69138 23.9414 5.83538 24.6374C6.00338 25.3334 6.27938 25.8974 6.66338 26.3294C7.07138 26.7374 7.61138 26.9414 8.28338 26.9414Z" fill="#728AB7"/>
</svg>
