<svg width="16" height="31" viewBox="0 0 16 31" fill="none" xmlns="http://www.w3.org/2000/svg">
<path d="M8.26527 30.7935C6.41727 30.7935 4.92927 30.4215 3.80127 29.6775C2.67327 28.9335 1.86927 27.9015 1.38927 26.5815C0.909266 25.2375 0.669266 23.6895 0.669266 21.9375C0.669266 21.0975 0.741266 20.3295 0.885266 19.6335C1.05327 18.9135 1.28127 18.2655 1.56927 17.6895C1.88127 17.1135 2.25327 16.6095 2.68527 16.1775C3.11727 15.7215 3.60927 15.3495 4.16127 15.0615C3.29727 14.4615 2.56527 13.6455 1.96527 12.6135C1.38927 11.5575 1.08927 10.2255 1.06527 8.61746C1.06527 7.03346 1.31727 5.66546 1.82127 4.51346C2.34927 3.33746 3.15327 2.44946 4.23327 1.84946C5.31327 1.22546 6.65727 0.913459 8.26527 0.913459C9.89727 0.913459 11.2413 1.22546 12.2973 1.84946C13.3533 2.47346 14.1333 3.36146 14.6373 4.51346C15.1653 5.66546 15.4173 7.03346 15.3933 8.61746C15.3693 10.2495 15.0693 11.5815 14.4933 12.6135C13.9413 13.6455 13.2333 14.4615 12.3693 15.0615C12.9213 15.3495 13.4133 15.7215 13.8453 16.1775C14.2773 16.6095 14.6373 17.1135 14.9253 17.6895C15.2373 18.2655 15.4653 18.9135 15.6093 19.6335C15.7773 20.3295 15.8613 21.0975 15.8613 21.9375C15.8853 23.6895 15.6453 25.2375 15.1413 26.5815C14.6613 27.9015 13.8573 28.9335 12.7293 29.6775C11.6253 30.4215 10.1373 30.7935 8.26527 30.7935ZM8.26527 27.0135C9.05727 27.0135 9.64527 26.7735 10.0293 26.2935C10.4373 25.8135 10.7013 25.2135 10.8213 24.4935C10.9413 23.7495 11.0013 22.9935 11.0013 22.2255C11.0253 21.4095 10.9653 20.6295 10.8213 19.8855C10.6773 19.1175 10.4013 18.4935 9.99327 18.0135C9.60927 17.5335 9.03327 17.2935 8.26527 17.2935C7.52127 17.2935 6.94527 17.5335 6.53727 18.0135C6.15327 18.4935 5.87727 19.1055 5.70927 19.8495C5.56527 20.5935 5.49327 21.3855 5.49327 22.2255C5.49327 22.9935 5.55327 23.7495 5.67327 24.4935C5.81727 25.2375 6.09327 25.8495 6.50127 26.3295C6.90927 26.7855 7.49727 27.0135 8.26527 27.0135ZM8.26527 13.0815C8.86527 13.0575 9.33327 12.8535 9.66927 12.4695C10.0293 12.0615 10.2813 11.5095 10.4253 10.8135C10.5693 10.1175 10.6413 9.32546 10.6413 8.43746C10.6413 7.33346 10.4613 6.43346 10.1013 5.73746C9.74127 5.04146 9.12927 4.69346 8.26527 4.69346C7.42527 4.69346 6.80127 5.04146 6.39327 5.73746C6.00927 6.43346 5.81727 7.32146 5.81727 8.40146C5.81727 9.28946 5.88927 10.0935 6.03327 10.8135C6.20127 11.5095 6.46527 12.0615 6.82527 12.4695C7.18527 12.8535 7.66527 13.0575 8.26527 13.0815Z" fill="#728AB7"/>
</svg>
