<svg width="16" height="31" viewBox="0 0 16 31" fill="none" xmlns="http://www.w3.org/2000/svg">
<path d="M7.74338 30.7935C6.06338 30.7935 4.68338 30.5055 3.60338 29.9295C2.52338 29.3535 1.73138 28.5135 1.22738 27.4095C0.723376 26.3055 0.471376 24.9615 0.471376 23.3775C0.471376 23.3295 0.471376 23.2695 0.471376 23.1975C0.471376 23.1255 0.471376 23.0535 0.471376 22.9815H5.22338C5.22338 24.2775 5.37938 25.2495 5.69138 25.8975C6.02738 26.5455 6.72338 26.8695 7.77938 26.8695C8.42738 26.8695 8.93138 26.6775 9.29138 26.2935C9.65138 25.9095 9.91538 25.2735 10.0834 24.3855C10.2514 23.4975 10.3354 22.3335 10.3354 20.8935V17.4015C9.99938 17.9535 9.49538 18.3855 8.82338 18.6975C8.15138 19.0095 7.34738 19.1775 6.41138 19.2015C4.85138 19.2255 3.60338 18.8655 2.66738 18.1215C1.75538 17.3535 1.09538 16.3215 0.687376 15.0255C0.303376 13.7295 0.111376 12.2655 0.111376 10.6335C0.111376 8.71346 0.363376 7.03346 0.867376 5.59346C1.37138 4.12946 2.18738 2.98946 3.31538 2.17346C4.44338 1.33346 5.91938 0.913459 7.74338 0.913459C9.54338 0.913459 11.0074 1.32146 12.1354 2.13746C13.2634 2.92946 14.0794 4.03346 14.5834 5.44946C15.1114 6.86546 15.3754 8.48546 15.3754 10.3095V20.6415C15.3754 22.5375 15.1474 24.2535 14.6914 25.7895C14.2594 27.3255 13.4914 28.5495 12.3874 29.4615C11.3074 30.3495 9.75938 30.7935 7.74338 30.7935ZM7.77938 15.4215C8.45138 15.4215 8.97938 15.2535 9.36338 14.9175C9.77138 14.5815 10.0954 14.2215 10.3354 13.8375V9.30146C10.3354 8.46146 10.2634 7.70546 10.1194 7.03346C9.97538 6.33746 9.71138 5.78546 9.32738 5.37746C8.96738 4.94546 8.43938 4.72946 7.74338 4.72946C7.07138 4.72946 6.54338 4.94546 6.15938 5.37746C5.79938 5.80946 5.54738 6.40946 5.40338 7.17746C5.25938 7.94546 5.18738 8.84546 5.18738 9.87746C5.18738 10.9095 5.22338 11.8455 5.29538 12.6855C5.39138 13.5255 5.61938 14.1975 5.97938 14.7015C6.33938 15.1815 6.93938 15.4215 7.77938 15.4215Z" fill="#728AB7"/>
</svg>
