<svg width="17" height="31" viewBox="0 0 17 31" fill="none" xmlns="http://www.w3.org/2000/svg">
<path d="M8.3233 30.7935C6.1873 30.7935 4.5073 30.3735 3.2833 29.5335C2.0833 28.6935 1.2433 27.5535 0.763297 26.1135C0.283297 24.6495 0.043297 22.9695 0.043297 21.0735V10.6695C0.043297 8.67746 0.283297 6.94946 0.763297 5.48546C1.2433 4.02146 2.0833 2.89346 3.2833 2.10146C4.5073 1.30946 6.1873 0.913459 8.3233 0.913459C10.3393 0.913459 11.9113 1.26146 13.0393 1.95746C14.1913 2.62946 15.0073 3.60146 15.4873 4.87346C15.9673 6.14546 16.2073 7.62146 16.2073 9.30146V11.7495H11.0953V9.22946C11.0953 8.41346 11.0473 7.66946 10.9513 6.99746C10.8793 6.32546 10.6513 5.79746 10.2673 5.41346C9.9073 5.00546 9.2713 4.80146 8.3593 4.80146C7.4473 4.80146 6.7753 5.01746 6.3433 5.44946C5.9353 5.85746 5.6713 6.42146 5.5513 7.14146C5.4313 7.83746 5.3713 8.62946 5.3713 9.51746V22.1895C5.3713 23.2455 5.4553 24.1215 5.6233 24.8175C5.7913 25.4895 6.0913 26.0055 6.5233 26.3655C6.9793 26.7015 7.5913 26.8695 8.3593 26.8695C9.2473 26.8695 9.8713 26.6655 10.2313 26.2575C10.6153 25.8255 10.8553 25.2615 10.9513 24.5655C11.0473 23.8695 11.0953 23.0895 11.0953 22.2255V19.5975H16.2073V21.9375C16.2073 23.6655 15.9793 25.2015 15.5233 26.5455C15.0673 27.8655 14.2633 28.9095 13.1113 29.6775C11.9833 30.4215 10.3873 30.7935 8.3233 30.7935Z" fill="#898989"/>
</svg>
